<svg width="10" height="10" viewBox="0 0 10 10" fill="none" xmlns="http://www.w3.org/2000/svg">
<path d="M1.19231 1.88464C1.0087 1.88464 0.832605 1.95758 0.702772 2.08742C0.572939 2.21725 0.5 2.39334 0.5 2.57695V8.80772C0.5 8.99133 0.572939 9.16742 0.702772 9.29726C0.832605 9.42709 1.0087 9.50003 1.19231 9.50003H8.80769C8.9913 9.50003 9.16739 9.42709 9.29723 9.29726C9.42706 9.16742 9.5 8.99133 9.5 8.80772V2.57695C9.5 2.39334 9.42706 2.21725 9.29723 2.08742C9.16739 1.95758 8.9913 1.88464 8.80769 1.88464H7.42308" stroke="#322D25" stroke-linecap="round" stroke-linejoin="round"/>
<path d="M0.5 4.65381H9.5" stroke="#322D25" stroke-linecap="round" stroke-linejoin="round"/>
<path d="M2.5769 0.5V3.26923" stroke="#322D25" stroke-linecap="round" stroke-linejoin="round"/>
<path d="M7.4231 0.5V3.26923" stroke="#322D25" stroke-linecap="round" stroke-linejoin="round"/>
<path d="M2.5769 1.88464H6.03844" stroke="#322D25" stroke-linecap="round" stroke-linejoin="round"/>
</svg>
