<svg width="33" height="30" viewBox="0 0 33 30" fill="none" xmlns="http://www.w3.org/2000/svg">
<path d="M29.1923 8.23083H3.80769C2.53319 8.23083 1.5 9.26402 1.5 10.5385V26.6924C1.5 27.9669 2.53319 29.0001 3.80769 29.0001H29.1923C30.4668 29.0001 31.5 27.9669 31.5 26.6924V10.5385C31.5 9.26402 30.4668 8.23083 29.1923 8.23083Z" stroke="#3A4A3F" stroke-width="2" stroke-linecap="round" stroke-linejoin="round"/>
<path d="M1.5 17.4615H31.5" stroke="#3A4A3F" stroke-width="2" stroke-linecap="round" stroke-linejoin="round"/>
<path d="M16.5 15.1539V19.7693" stroke="#3A4A3F" stroke-width="2" stroke-linecap="round" stroke-linejoin="round"/>
<path d="M23.4231 8.23082C23.4231 6.3947 22.6937 4.63379 21.3954 3.33546C20.097 2.03713 18.3361 1.30774 16.5 1.30774V1.30774C14.6639 1.30774 12.903 2.03713 11.6047 3.33546C10.3063 4.63379 9.57693 6.3947 9.57693 8.23082" stroke="#3A4A3F" stroke-width="2" stroke-linecap="round" stroke-linejoin="round"/>
</svg>
