<svg width="8" height="12" viewBox="0 0 8 12" fill="none" xmlns="http://www.w3.org/2000/svg">
<path d="M7.5 4.44446C7.5 6.38112 4 11.0556 4 11.0556C4 11.0556 0.5 6.38112 0.5 4.44446C0.5 3.5162 0.868749 2.62596 1.52513 1.96958C2.1815 1.31321 3.07174 0.944458 4 0.944458C4.92826 0.944458 5.8185 1.31321 6.47487 1.96958C7.13125 2.62596 7.5 3.5162 7.5 4.44446V4.44446Z" stroke="#322D25" stroke-linecap="round" stroke-linejoin="round"/>
<path d="M4 5.61117C4.64433 5.61117 5.16667 5.08883 5.16667 4.4445C5.16667 3.80017 4.64433 3.27783 4 3.27783C3.35567 3.27783 2.83334 3.80017 2.83334 4.4445C2.83334 5.08883 3.35567 5.61117 4 5.61117Z" stroke="#322D25" stroke-linecap="round" stroke-linejoin="round"/>
</svg>
