<svg width="60" height="61" viewBox="0 0 60 61" fill="none" xmlns="http://www.w3.org/2000/svg">
<path d="M33.6335 0C35.561 0.176333 36.7913 1.09448 38.0925 2.4565C38.9478 3.33614 39.5234 3.79623 40.7274 4.05364C41.4124 4.02729 41.9982 3.89554 42.6528 3.69894C44.854 3.04631 46.4633 3.1517 48.632 3.85095C49.0779 6.19396 49.4812 8.53088 49.696 10.9063C49.7122 11.0847 49.7285 11.261 49.7447 11.4434C49.844 12.6311 49.8643 13.8087 49.848 14.9985C50.0365 14.966 50.2271 14.9336 50.4216 14.9012C53.0464 14.5282 56.346 14.36 58.6647 15.8092C59.8524 16.7598 59.8524 16.7598 59.9821 17.6961C60.0348 18.4278 59.9862 18.6406 59.6274 19.3176C57.5824 21.3464 53.7476 21.1336 51.0824 21.1235C50.9081 21.1235 50.7317 21.1215 50.5513 21.1215C50.0061 21.1174 49.4609 21.1174 48.9157 21.1174C48.5691 21.1154 48.2225 21.1134 47.8759 21.1134C47.7138 21.1134 47.5517 21.1134 47.3834 21.1113C46.2464 21.1032 46.2464 21.1032 45.7944 20.8762C45.7944 21.0607 45.7964 21.2451 45.7964 21.4356C45.8086 25.925 45.8187 30.4144 45.8268 34.9038C45.8289 37.0746 45.8329 39.2453 45.841 41.418C45.8471 43.309 45.8512 45.2021 45.8512 47.0951C45.8532 48.0964 45.8552 49.0997 45.8593 50.1009C45.8633 51.0434 45.8633 51.9879 45.8633 52.9324C45.8633 53.2769 45.8653 53.6235 45.8674 53.9681C45.8694 54.4424 45.8694 54.9146 45.8674 55.3889C45.8674 55.6544 45.8694 55.9179 45.8694 56.1915C45.7559 57.3407 45.4965 58.3764 44.6026 59.1588C43.5082 59.9026 42.6407 60.0526 41.3293 60.0465C41.1672 60.0465 41.005 60.0485 40.8368 60.0485C40.2916 60.0506 39.7464 60.0506 39.2032 60.0485C38.812 60.0506 38.4208 60.0506 38.0297 60.0526C36.9676 60.0546 35.9056 60.0546 34.8455 60.0546C33.9578 60.0546 33.0721 60.0566 32.1864 60.0566C30.0947 60.0587 28.003 60.0587 25.9093 60.0587C23.7528 60.0566 21.5962 60.0587 19.4397 60.0627C17.5872 60.0668 15.7347 60.0688 13.8822 60.0668C12.7755 60.0668 11.6689 60.0668 10.5643 60.0708C9.52248 60.0729 8.48272 60.0729 7.44094 60.0708C7.0599 60.0688 6.67885 60.0708 6.29781 60.0708C5.77692 60.0749 5.254 60.0729 4.73311 60.0688C4.58312 60.0708 4.43314 60.0729 4.2791 60.0749C3.06098 60.0607 2.01109 59.783 0.987546 59.1101C-0.258947 57.6569 0.0227836 55.628 0.0369713 53.8282C0.0349445 53.4269 0.0329179 53.0236 0.0308911 52.6202C0.0268375 51.5278 0.0288621 50.4374 0.0349425 49.3449C0.0389962 48.2018 0.0349425 47.0566 0.0349425 45.9135C0.0329157 43.9941 0.0369711 42.0727 0.0430515 40.1513C0.0511588 37.9339 0.0511566 35.7146 0.0471029 33.4952C0.0410225 31.3589 0.0430493 29.2227 0.0471029 27.0864C0.0491298 26.1784 0.0491298 25.2704 0.0471029 24.3623C0.0450761 23.2922 0.0471058 22.222 0.0531862 21.1519C0.055213 20.7587 0.055213 20.3675 0.0531862 19.9743C0.0511594 19.4392 0.0552117 18.9021 0.0612921 18.365C0.0592653 18.211 0.0572388 18.0569 0.0552119 17.8988C0.0775069 16.7233 0.464629 15.9105 1.20442 14.9985C2.24012 14.2262 3.33663 14.3073 4.57704 14.3154C5.00673 14.3114 5.43844 14.3073 5.87015 14.3053C6.54103 14.3033 7.21393 14.3012 7.88481 14.3012C10.621 14.2992 13.1403 14.1391 15.7975 13.4702C16.9285 13.2088 18.0898 13.0932 19.2431 12.9716C19.4539 12.9493 19.6667 12.927 19.8836 12.9027C22.2975 12.6879 24.7256 12.7507 27.1477 12.769C27.1984 12.6007 27.2511 12.4325 27.3037 12.2582C27.5835 11.4637 27.9341 10.732 28.3131 9.98005C28.3861 9.83007 28.4611 9.68211 28.5381 9.52807C28.7793 9.04569 29.0205 8.56331 29.2637 8.08295C29.3448 7.91878 29.4279 7.7546 29.511 7.58638C32.9971 0.636421 32.9971 0.636421 33.6335 0ZM7.20785 21.991C6.47009 23.128 6.30997 23.9813 6.47414 25.3352C6.88153 26.6263 7.57065 27.3519 8.74215 28.0208C9.76975 28.2944 10.8014 28.3957 11.8026 27.9802C12.8201 27.3762 13.5903 26.6871 13.9734 25.5379C14.0767 24.2772 14.1294 23.1523 13.3653 22.0923C12.4411 21.1661 11.7297 20.6492 10.3879 20.6107C9.05631 20.6249 8.126 21.0262 7.20785 21.991ZM25.2891 33.2155C24.9486 33.5519 24.6263 33.8945 24.3101 34.2532C24.1764 34.387 24.0426 34.5208 23.9048 34.6586C23.8379 33.7222 23.771 32.7858 23.7021 31.821C21.6955 31.821 19.689 31.821 17.6216 31.821C17.6216 38.844 17.6216 45.8669 17.6216 53.1026C19.762 53.1026 21.9023 53.1026 24.1075 53.1026C24.1156 52.2291 24.1216 51.3555 24.1298 50.4556C24.1379 49.7543 24.146 49.0551 24.1561 48.3558C24.1642 47.6181 24.1723 46.8803 24.1784 46.1446C24.1825 45.4331 24.1906 44.7217 24.2007 44.0103C24.2068 43.609 24.2088 43.2097 24.2108 42.8084C24.2412 40.9154 24.4601 39.4297 25.7836 37.9988C26.5964 37.3056 27.5267 37.0664 28.5786 37.0137C29.6954 37.1212 30.4737 37.3664 31.2642 38.1812C31.8884 39.152 32.0627 39.9141 32.0769 41.0694C32.0789 41.1991 32.081 41.3309 32.083 41.4646C32.0891 41.8923 32.0931 42.322 32.0951 42.7517C32.0992 43.0496 32.1033 43.3476 32.1073 43.6455C32.1174 44.4299 32.1255 45.2122 32.1337 45.9966C32.1438 46.937 32.156 47.8775 32.1681 48.82C32.1864 50.2468 32.2005 51.6757 32.2147 53.1026C34.4219 53.1026 36.6291 53.1026 38.9032 53.1026C38.9154 50.636 38.9154 50.636 38.9235 48.1673C38.9255 47.16 38.9276 46.1527 38.9336 45.1453C38.9377 44.3306 38.9397 43.5178 38.9417 42.7051C38.9417 42.3949 38.9438 42.0869 38.9458 41.7788C38.9661 38.7426 38.7836 35.8382 36.6494 33.4668C33.4734 30.6333 28.532 30.4104 25.2891 33.2155ZM6.87951 31.821C6.87951 38.844 6.87951 45.8669 6.87951 53.1026C9.08671 53.1026 11.2939 53.1026 13.568 53.1026C13.568 46.0797 13.568 39.0568 13.568 31.821C11.3608 31.821 9.1536 31.821 6.87951 31.821Z" fill="#3A4A3F"/>
<path d="M33.6335 0C35.561 0.176333 36.7913 1.09448 38.0925 2.4565C38.9478 3.33614 39.5234 3.79623 40.7273 4.05364C41.4124 4.02729 41.9982 3.89554 42.6528 3.69894C44.8539 3.04631 46.4632 3.1517 48.6319 3.85095C49.0778 6.19396 49.4812 8.53088 49.696 10.9063C49.7122 11.0847 49.7284 11.261 49.7447 11.4434C49.844 12.6311 49.8642 13.8087 49.848 14.9985C50.0365 14.966 50.227 14.9336 50.4216 14.9012C53.0463 14.5282 56.346 14.36 58.6647 15.8092C59.8524 16.7598 59.8524 16.7598 59.9821 17.6961C60.0348 18.4278 59.9862 18.6406 59.6274 19.3176C57.5216 21.4072 53.5085 21.1498 50.7601 21.1438C50.5878 21.1438 50.4176 21.1438 50.2412 21.1417C50.0649 21.1417 49.8886 21.1417 49.7082 21.1397C45.6383 21.1235 42.0752 20.4891 38.1472 19.4372C32.5512 17.9536 26.8578 16.8793 21.1442 15.9734C20.9821 15.949 20.8199 15.9227 20.6537 15.8963C18.7262 15.5903 16.8008 15.3167 14.8631 15.0998C13.9693 14.968 13.191 14.7208 12.3519 14.3904C12.9376 13.9992 13.2113 13.9019 13.8821 13.7824C14.0686 13.7499 14.2531 13.7155 14.4436 13.681C14.7435 13.6304 14.7435 13.6304 15.0496 13.5797C15.2584 13.5452 15.4671 13.5087 15.682 13.4723C19.5086 12.85 23.2744 12.7061 27.1477 12.769C27.1983 12.6007 27.251 12.4325 27.3037 12.2582C27.5834 11.4637 27.9341 10.732 28.3131 9.98005C28.3861 9.83007 28.461 9.68211 28.5381 9.52807C28.7793 9.04569 29.0204 8.56331 29.2637 8.08295C29.3853 7.8377 29.3853 7.8377 29.5109 7.58638C32.9971 0.636421 32.9971 0.636421 33.6335 0Z" fill="#231305"/>
<path d="M34.0389 1.01343C35.0097 1.11274 35.5691 1.36204 36.3454 1.94982C36.6312 2.16871 36.6312 2.16871 36.923 2.38964C37.673 2.98755 38.3986 3.60775 39.1059 4.25634C39.039 4.39011 38.9722 4.52388 38.9032 4.6617C40.7659 5.17043 42.3529 4.72858 44.1608 4.21377C45.3992 3.87327 46.5322 3.72126 47.8212 3.85097C48.6218 7.34521 49.1873 11.0016 49.0373 14.5931C42.6042 14.7005 35.1192 13.3365 29.3772 10.3368C29.6893 9.27474 30.1595 8.35456 30.6825 7.38574C30.8629 7.04524 31.0432 6.70676 31.2236 6.36625C31.3189 6.18992 31.4141 6.01156 31.5114 5.82915C32.0303 4.85627 32.539 3.87732 33.0498 2.9004C33.2423 2.53759 33.4329 2.17277 33.6234 1.80997C33.7612 1.54445 33.9011 1.27894 34.0389 1.01343Z" fill="#5D310D"/>
<path d="M29.3772 10.3368C29.6001 10.426 29.8251 10.5131 30.0562 10.6043C32.6221 11.5954 35.2104 12.3474 37.8898 12.9717C38.0884 13.0183 38.2871 13.0649 38.4938 13.1135C41.984 13.9101 45.4742 14.2972 49.0373 14.5931C49.0373 14.8606 49.0373 15.1282 49.0373 15.4038C48.7738 15.4484 48.7738 15.4484 48.5063 15.495C45.0891 16.1031 41.7043 16.9158 38.3722 17.8847C36.4265 18.3225 34.9854 18.1563 33.064 17.6333C32.5451 17.4996 32.0262 17.3678 31.5074 17.2381C31.3695 17.2037 31.2337 17.1692 31.0939 17.1347C29.3569 16.7071 27.6017 16.3787 25.8424 16.0504C25.6073 16.0058 25.6073 16.0058 25.3661 15.9592C22.5691 15.4322 19.7782 14.9985 16.9366 14.7715C16.7278 14.7532 16.519 14.735 16.3022 14.7167C15.7975 14.6762 15.2908 14.6336 14.7841 14.5931C15.5664 13.8108 16.8859 13.8939 17.95 13.7581C18.0878 13.7398 18.2256 13.7216 18.3675 13.7013C21.5638 13.2878 24.7398 13.2939 27.9584 13.377C27.9868 13.2189 28.0152 13.0629 28.0456 12.9007C28.1692 12.321 28.3719 11.9116 28.6678 11.4009C28.757 11.2428 28.8482 11.0847 28.9394 10.9225C29.1745 10.5395 29.1745 10.5395 29.3772 10.3368Z" fill="#3B2009"/>
<path d="M53.7117 15.7459C54.0258 15.7398 54.0258 15.7398 54.3481 15.7357C55.9635 15.7357 57.4653 15.906 58.7909 16.8849C59.1719 17.4301 59.1719 17.4301 59.3097 18.0524C59.1719 18.6462 59.1719 18.6462 58.6774 19.0901C56.1094 20.3974 53.3347 20.5433 50.4931 20.521C50.3593 20.521 50.2255 20.521 50.0877 20.519C48.0873 20.5068 46.1435 20.446 44.1735 20.065C43.9809 20.0285 43.7863 19.992 43.5877 19.9535C39.4469 19.1469 39.4469 19.1469 38.093 18.6462C38.2957 18.2409 38.2957 18.2409 38.7011 18.097C38.9666 18.0301 38.9666 18.0301 39.2361 17.9652C39.4348 17.9145 39.6334 17.8659 39.8361 17.8152C40.0509 17.7625 40.2658 17.7119 40.4867 17.6592C40.7056 17.6044 40.9265 17.5517 41.1535 17.497C45.3389 16.4917 49.3986 15.7904 53.7117 15.7459Z" fill="#5D310D"/>
<path d="M32.6394 14.9576C33.6832 15.3893 34.7635 15.6852 35.8499 15.9872C36.241 16.0966 36.6302 16.204 37.0214 16.3135C37.1997 16.3642 37.3801 16.4148 37.5645 16.4655C38.357 16.6966 39.1374 16.958 39.9157 17.2276C39.3036 17.5417 38.7158 17.7789 38.055 17.9755C37.8767 18.0302 37.6983 18.0849 37.5139 18.1417C35.9107 18.391 34.3216 17.8863 32.7711 17.5073C30.4849 16.9621 28.1905 16.4979 25.8799 16.0622C25.7218 16.0318 25.5638 16.0014 25.4016 15.971C22.5924 15.4379 19.7914 15.0001 16.9376 14.7711C16.7289 14.7528 16.5181 14.7346 16.3032 14.7164C15.7965 14.6758 15.2898 14.6333 14.7831 14.5927C18.0564 11.3214 29.1249 13.3827 32.6394 14.9576Z" fill="#5C300D"/>
<path d="M43.9703 6.08044C44.0371 6.08044 44.104 6.08044 44.1729 6.08044C44.2074 6.20205 44.2419 6.32569 44.2783 6.45135C44.6655 7.7546 44.6655 7.7546 45.5917 8.71531C46.0579 8.94636 46.522 9.13486 47.0105 9.32335C47.0105 9.39024 47.0105 9.45712 47.0105 9.52603C45.8633 9.59697 45.1701 9.44496 44.1729 8.91799C43.7453 8.27751 43.7169 8.1174 43.7291 7.38572C43.7311 7.2256 43.7331 7.0675 43.7331 6.90333C43.7676 6.48581 43.7676 6.48581 43.9703 6.08044Z" fill="#251405"/>
<path d="M28.3637 10.1342C28.6313 10.201 28.8988 10.2679 29.1745 10.3368C28.8786 11.4131 28.3678 12.2542 27.7557 13.1744C27.4882 13.0406 27.2206 12.9068 26.945 12.769C27.6483 11.4637 27.6483 11.4637 28.3637 10.1342Z" fill="#090101"/>
</svg>
