<svg width="21" height="22" viewBox="0 0 21 22" fill="none" xmlns="http://www.w3.org/2000/svg">
<path d="M7.45837 3.69231L8.1199 1.98462C8.23147 1.69548 8.42776 1.44679 8.68306 1.2711C8.93836 1.09541 9.24076 1.00092 9.55067 1H10.8122C11.1221 1.00092 11.4245 1.09541 11.6798 1.2711C11.9351 1.44679 12.1314 1.69548 12.243 1.98462L12.9045 3.69231L15.1507 4.98462L16.9661 4.70769C17.2683 4.66666 17.576 4.71642 17.8499 4.85065C18.1239 4.98488 18.3517 5.19752 18.5045 5.46154L19.1199 6.53846C19.2776 6.80669 19.3502 7.11643 19.3283 7.4268C19.3063 7.73717 19.1907 8.03359 18.9968 8.27692L17.8738 9.70769V12.2923L19.0276 13.7231C19.2215 13.9664 19.3371 14.2628 19.359 14.5732C19.381 14.8836 19.3084 15.1933 19.1507 15.4615L18.5353 16.5385C18.3825 16.8025 18.1546 17.0151 17.8807 17.1493C17.6068 17.2836 17.2991 17.3333 16.9968 17.2923L15.1814 17.0154L12.9353 18.3077L12.2737 20.0154C12.1622 20.3045 11.9659 20.5532 11.7106 20.7289C11.4553 20.9046 11.1529 20.9991 10.843 21H9.55067C9.24076 20.9991 8.93836 20.9046 8.68306 20.7289C8.42776 20.5532 8.23147 20.3045 8.1199 20.0154L7.45837 18.3077L5.21221 17.0154L3.39683 17.2923C3.09454 17.3333 2.78689 17.2836 2.51295 17.1493C2.23902 17.0151 2.01117 16.8025 1.85837 16.5385L1.24298 15.4615C1.08529 15.1933 1.01264 14.8836 1.03461 14.5732C1.05658 14.2628 1.17215 13.9664 1.36606 13.7231L2.48913 12.2923V9.70769L1.33529 8.27692C1.14138 8.03359 1.02582 7.73717 1.00384 7.4268C0.981869 7.11643 1.05452 6.80669 1.21221 6.53846L1.8276 5.46154C1.9804 5.19752 2.20825 4.98488 2.48218 4.85065C2.75612 4.71642 3.06378 4.66666 3.36606 4.70769L5.18144 4.98462L7.45837 3.69231ZM7.10452 11C7.10452 11.6086 7.28498 12.2034 7.62307 12.7094C7.96117 13.2154 8.44172 13.6098 9.00395 13.8427C9.56619 14.0756 10.1849 14.1365 10.7817 14.0178C11.3786 13.8991 11.9268 13.606 12.3572 13.1757C12.7875 12.7454 13.0805 12.1971 13.1992 11.6003C13.318 11.0034 13.257 10.3847 13.0241 9.82251C12.7913 9.26028 12.3969 8.77973 11.8909 8.44163C11.3849 8.10354 10.79 7.92308 10.1814 7.92308C9.36539 7.92308 8.58276 8.24725 8.00573 8.82429C7.42869 9.40132 7.10452 10.1839 7.10452 11V11Z" stroke="#3A4A3F" stroke-width="2" stroke-linecap="round" stroke-linejoin="round"/>
</svg>
