<svg width="12" height="12" viewBox="0 0 12 12" fill="none" xmlns="http://www.w3.org/2000/svg">
<path d="M11.3138 8.02287L8.02263 11.3141C7.90365 11.4329 7.74237 11.4997 7.57421 11.4997C7.40605 11.4997 7.24477 11.4329 7.12579 11.3141L0.594112 4.78241C0.561292 4.75104 0.535902 4.71272 0.519799 4.67027C0.503696 4.62782 0.497288 4.5823 0.501044 4.53705L1.00023 1.2966C1.0043 1.21938 1.03681 1.1464 1.09148 1.09173C1.14616 1.03705 1.21914 1.00454 1.29635 1.00047L4.53681 0.501288C4.58206 0.497532 4.62757 0.50394 4.67003 0.520043C4.71248 0.536146 4.75079 0.561536 4.78217 0.594356L11.3138 7.12603C11.4327 7.24501 11.4994 7.4063 11.4994 7.57445C11.4994 7.74261 11.4327 7.90389 11.3138 8.02287V8.02287Z" stroke="#322D25" stroke-linecap="round" stroke-linejoin="round"/>
<path d="M3.55537 3.97864C3.789 3.97864 3.9784 3.78924 3.9784 3.5556C3.9784 3.32197 3.789 3.13257 3.55537 3.13257C3.32173 3.13257 3.13233 3.32197 3.13233 3.5556C3.13233 3.78924 3.32173 3.97864 3.55537 3.97864Z" stroke="#322D25" stroke-linecap="round" stroke-linejoin="round"/>
</svg>
